<?xml version="1.0" encoding="utf-8"?>
<!-- Generator: Adobe Illustrator 15.0.0, SVG Export Plug-In . SVG Version: 6.00 Build 0)  -->
<!DOCTYPE svg PUBLIC "-//W3C//DTD SVG 1.1//EN" "http://www.w3.org/Graphics/SVG/1.1/DTD/svg11.dtd">
<svg version="1.1" id="图层_1" xmlns="http://www.w3.org/2000/svg" xmlns:xlink="http://www.w3.org/1999/xlink" x="0px" y="0px"
	 width="30px" height="30px" viewBox="0 0 30 30" enable-background="new 0 0 30 30" xml:space="preserve">
<g>
	<g>
		<path fill="#6684AB" d="M24.341,28.316H13.1c-0.871,0-1.542-0.426-2.032-0.736l-0.242-0.089l-0.009-0.267v-12.5l0.225-0.097
			c0.567-0.243,3.04-4.179,3.95-6.134c-0.014-0.844-0.075-3.428-0.075-3.428c-0.021-0.575,0.383-1.652,2.038-2.006
			c0.224-0.048,0.457-0.073,0.693-0.073c1.14,0,2.138,0.55,2.409,1.06c0.013,0.022,1.418,2.679,1.566,4.873
			c0.021,0.278-0.323,2.398-0.533,3.606l6.2-0.005c1.168,0,2.075,0.575,2.488,1.578c0.437,1.061,0.213,2.356-0.537,3.245
			c0.546,1.297-0.012,2.535-0.545,3.208c0.467,1.091,0.11,2.371-0.549,3.213c0.211,0.58,0.296,1.722-0.199,2.716
			C27.53,27.317,26.565,28.316,24.341,28.316z M11.557,27.014c0.45,0.282,0.938,0.562,1.542,0.562h11.241
			c1.462,0,2.446-0.468,2.926-1.391c0.5-0.961,0.265-2.09,0.147-2.255l-0.172-0.243l0.195-0.23c0.616-0.671,0.999-1.875,0.495-2.781
			l-0.132-0.237l0.187-0.197c0.051-0.055,1.245-1.347,0.485-2.791l-0.127-0.243l0.194-0.192c0.674-0.668,0.906-1.776,0.553-2.633
			c-0.297-0.722-0.938-1.119-1.803-1.119l-7.086,0.006l0.079-0.437c0.264-1.452,0.6-3.622,0.6-3.87
			c-0.137-2.029-1.465-4.538-1.479-4.562c-0.123-0.23-0.852-0.671-1.757-0.671c-0.184,0-0.365,0.019-0.538,0.056
			c-1.471,0.314-1.454,1.221-1.453,1.259c0,0.005,0.065,2.783,0.077,3.523l0.001,0.084L15.7,8.727
			c-0.603,1.319-3.017,5.53-4.143,6.439V27.014z"/>
	</g>
	<g>
		<path fill="#6684AB" d="M9.602,28.713H1.469c-0.689,0-1.25-0.561-1.25-1.25V15.278c0-0.689,0.561-1.25,1.25-1.25h8.133
			c0.689,0,1.25,0.561,1.25,1.25v12.185C10.853,28.152,10.292,28.713,9.602,28.713z M1.469,14.769c-0.281,0-0.51,0.229-0.51,0.509
			v12.185c0,0.28,0.229,0.509,0.51,0.509h8.133c0.281,0,0.51-0.229,0.51-0.509V15.278c0-0.281-0.229-0.509-0.51-0.509H1.469z"/>
	</g>
</g>
</svg>
