<?xml version="1.0" encoding="utf-8"?>
<!-- Generator: Adobe Illustrator 15.0.0, SVG Export Plug-In . SVG Version: 6.00 Build 0)  -->
<!DOCTYPE svg PUBLIC "-//W3C//DTD SVG 1.1//EN" "http://www.w3.org/Graphics/SVG/1.1/DTD/svg11.dtd">
<svg version="1.1" id="图层_1" xmlns="http://www.w3.org/2000/svg" xmlns:xlink="http://www.w3.org/1999/xlink" x="0px" y="0px"
	 width="30px" height="30px" viewBox="0 0 30 30" enable-background="new 0 0 30 30" xml:space="preserve">
<g>
	<path fill="#6684AB" d="M10.912,14.936c0.797-0.342,3.422-4.74,4.185-6.41c-0.011-0.742-0.077-3.522-0.077-3.522
		c-0.01-0.282,0.157-1.298,1.749-1.639c1.234-0.266,2.462,0.346,2.704,0.8C19.528,4.268,20.858,6.811,21,8.899
		c0.016,0.217-0.352,2.555-0.607,3.96l6.656-0.006c2.525,0,2.977,2.944,1.514,4.395c0.731,1.39-0.081,2.732-0.545,3.225
		c0.6,1.077,0.162,2.446-0.547,3.22c0.383,0.508,0.833,4.247-3.377,4.247H12.829c-0.78,0-1.379-0.39-1.867-0.698
		c-0.015-0.01-0.032-0.019-0.05-0.025V14.936z"/>
	<path fill="#6684AB" d="M10.206,27.456c0,0.487-0.395,0.882-0.882,0.882H1.173c-0.487,0-0.882-0.395-0.882-0.882v-12.21
		c0-0.487,0.395-0.882,0.882-0.882h8.151c0.487,0,0.882,0.395,0.882,0.882V27.456z"/>
</g>
</svg>
